<svg width="606" height="647" viewBox="0 0 606 647" fill="none" xmlns="http://www.w3.org/2000/svg">
<path d="M294.875 109.714L296.83 122.656C312.18 224.297 391.554 304.311 493.069 320.476L496.747 321.062L493.775 321.535C391.922 337.755 312.398 418.236 297.399 520.277L294.875 537.446L290.481 507.557C276.55 412.785 203.438 337.616 109.088 321.062V321.062V321.062C203.512 304.495 276.791 229.451 291.107 134.661L294.875 109.714ZM294.875 0.701416L268.999 119.307C249.732 207.618 181.718 277.167 93.8578 298.399L0.0758362 321.062L93.2319 343.574C181.416 364.884 249.578 434.857 268.568 523.57L294.875 646.459L320.678 525.922C339.928 435.997 409.661 365.444 499.355 345.144L605.76 321.062L498.721 296.837C409.353 276.611 339.77 206.485 320.239 116.963L294.875 0.701416Z" fill="white"/>
</svg>
